<svg width="256" height="256" viewBox="0 0 256 256" fill="none" xmlns="http://www.w3.org/2000/svg">
<rect x="27" y="27" width="202" height="202" rx="41" fill="url(#paint0_linear_2379_14)" stroke="url(#paint1_linear_2379_14)" stroke-width="2"/>
<g filter="url(#filter0_d_2379_14)">
<path d="M130.14 82.46C144.887 82.46 156.693 87.1733 165.56 96.6C174.52 105.933 179 117.973 179 132.72C179 147.467 174.427 159.647 165.28 169.26C156.227 178.78 144.42 183.54 129.86 183.54C115.393 183.54 103.633 178.78 94.58 169.26C85.5267 159.74 81 147.7 81 133.14C81 118.487 85.5267 106.4 94.58 96.88C103.633 87.2667 115.487 82.46 130.14 82.46ZM157.72 104.44C155.013 99.68 151.28 95.9 146.52 93.1C141.76 90.3 136.207 88.9 129.86 88.9C118.473 88.9 109.653 92.4 103.4 99.4C97.24 106.307 94.16 115.733 94.16 127.68C94.16 140.093 96.96 151.2 102.56 161C105.267 165.853 109.047 169.773 113.9 172.76C118.753 175.653 124.307 177.1 130.56 177.1C141.667 177.1 150.3 173.46 156.46 166.18C162.713 158.9 165.84 149.1 165.84 136.78C165.84 124.46 163.133 113.68 157.72 104.44Z" fill="#E2D0FF"/>
</g>
<defs>
<filter id="filter0_d_2379_14" x="59" y="64.4609" width="142" height="145.078" filterUnits="userSpaceOnUse" color-interpolation-filters="sRGB">
<feFlood flood-opacity="0" result="BackgroundImageFix"/>
<feColorMatrix in="SourceAlpha" type="matrix" values="0 0 0 0 0 0 0 0 0 0 0 0 0 0 0 0 0 0 127 0" result="hardAlpha"/>
<feMorphology radius="10" operator="dilate" in="SourceAlpha" result="effect1_dropShadow_2379_14"/>
<feOffset dy="4"/>
<feGaussianBlur stdDeviation="6"/>
<feComposite in2="hardAlpha" operator="out"/>
<feColorMatrix type="matrix" values="0 0 0 0 0.256773 0 0 0 0 0.161766 0 0 0 0 0.416786 0 0 0 1 0"/>
<feBlend mode="normal" in2="BackgroundImageFix" result="effect1_dropShadow_2379_14"/>
<feBlend mode="normal" in="SourceGraphic" in2="effect1_dropShadow_2379_14" result="shape"/>
</filter>
<linearGradient id="paint0_linear_2379_14" x1="26" y1="-21.5" x2="243" y2="271" gradientUnits="userSpaceOnUse">
<stop offset="0.0671711" stop-color="#360B7F"/>
<stop offset="0.394231" stop-color="#200450" stop-opacity="0.92"/>
<stop offset="0.596154" stop-color="#17013A" stop-opacity="0.83"/>
<stop offset="1" stop-color="#210455" stop-opacity="0.75"/>
</linearGradient>
<linearGradient id="paint1_linear_2379_14" x1="14.5" y1="19.5" x2="230" y2="242.5" gradientUnits="userSpaceOnUse">
<stop stop-color="white" stop-opacity="0.49"/>
<stop offset="1" stop-color="#999999"/>
</linearGradient>
</defs>
</svg>
