<svg xmlns="http://www.w3.org/2000/svg" width="512" height="512" viewBox="0 0 512 512" fill="none">
<g shape-rendering="geometricPrecision">
  <polygon points="338.4,254.2 329.0,302.6 368.1,339.0" fill="#dedceb"/>
  <polygon points="338.4,254.2 368.1,339.0 386.2,272.5" fill="#d5d2e0"/>
  <polygon points="329.0,302.6 306.9,338.3 368.1,339.0" fill="#f1effb"/>
  <polygon points="306.9,338.3 326.2,386.0 368.1,339.0" fill="#fcfbff"/>
  <polygon points="306.9,338.3 274.9,358.8 266.7,403.0" fill="#f8fbff"/>
  <polygon points="306.9,338.3 266.7,403.0 326.2,386.0" fill="#fbfbff"/>
  <polygon points="274.9,358.8 237.3,358.2 266.7,403.0" fill="#f7fcff"/>
  <polygon points="237.3,358.2 218.9,399.2 266.7,403.0" fill="#f1f8ff"/>
  <polygon points="237.3,358.2 205.8,339.9 167.9,362.0" fill="#ddddeb"/>
  <polygon points="237.3,358.2 167.9,362.0 218.9,399.2" fill="#d3d7e5"/>
  <polygon points="205.8,339.9 183.4,301.5 167.9,362.0" fill="#e6e7f4"/>
  <polygon points="183.4,301.5 134.0,314.1 167.9,362.0" fill="#c6c9d5"/>
  <polygon points="183.4,301.5 175.2,256.5 126.8,242.8" fill="#e2e0ee"/>
  <polygon points="183.4,301.5 126.8,242.8 134.0,314.1" fill="#e9e9f6"/>
  <polygon points="175.2,256.5 183.3,210.2 126.8,242.8" fill="#d5d4e3"/>
  <polygon points="183.3,210.2 142.3,176.1 126.8,242.8" fill="#b4b3c1"/>
  <polygon points="183.3,210.2 206.9,172.6 187.6,126.5" fill="#cfd0db"/>
  <polygon points="183.3,210.2 187.6,126.5 142.3,176.1" fill="#c3c4d0"/>
  <polygon points="206.9,172.6 239.3,153.4 187.6,126.5" fill="#b8b9c6"/>
  <polygon points="239.3,153.4 237.9,108.0 187.6,126.5" fill="#a0a3af"/>
  <polygon points="239.3,153.4 272.8,153.5 292.1,113.9" fill="#bdc2d1"/>
  <polygon points="239.3,153.4 292.1,113.9 237.9,108.0" fill="#b2b7c5"/>
  <polygon points="272.8,153.5 306.2,172.8 292.1,113.9" fill="#afb0be"/>
  <polygon points="306.2,172.8 350.6,154.5 292.1,113.9" fill="#d2cfde"/>
  <polygon points="306.2,172.8 328.7,211.6 377.7,199.8" fill="#d1d0de"/>
  <polygon points="306.2,172.8 377.7,199.8 350.6,154.5" fill="#b3b2bf"/>
  <polygon points="328.7,211.6 338.4,254.2 377.7,199.8" fill="#b0afbd"/>
  <polygon points="338.4,254.2 386.2,272.5 377.7,199.8" fill="#a4a4b1"/>
  <polygon points="386.2,272.5 368.1,339.0 434.7,229.9" fill="#a2a6b2"/>
  <polygon points="368.1,339.0 420.2,334.8 434.7,229.9" fill="#adb1bf"/>
  <polygon points="368.1,339.0 326.2,386.0 374.5,403.8" fill="#cacdd7"/>
  <polygon points="368.1,339.0 374.5,403.8 420.2,334.8" fill="#c8ccd6"/>
  <polygon points="326.2,386.0 266.7,403.0 374.5,403.8" fill="#c5c6cf"/>
  <polygon points="266.7,403.0 301.1,442.4 374.5,403.8" fill="#e3e2eb"/>
  <polygon points="266.7,403.0 218.9,399.2 229.8,450.0" fill="#bcbec9"/>
  <polygon points="266.7,403.0 229.8,450.0 301.1,442.4" fill="#9b9ba7"/>
  <polygon points="218.9,399.2 167.9,362.0 229.8,450.0" fill="#aaacb7"/>
  <polygon points="167.9,362.0 147.8,415.4 229.8,450.0" fill="#b6b7c3"/>
  <polygon points="167.9,362.0 134.0,314.1 97.6,348.5" fill="#a7a9b4"/>
  <polygon points="167.9,362.0 97.6,348.5 147.8,415.4" fill="#b3b6c2"/>
  <polygon points="134.0,314.1 126.8,242.8 97.6,348.5" fill="#92949f"/>
  <polygon points="126.8,242.8 73.8,261.8 97.6,348.5" fill="#adadb8"/>
  <polygon points="126.8,242.8 142.3,176.1 87.2,184.2" fill="#fcfaff"/>
  <polygon points="126.8,242.8 87.2,184.2 73.8,261.8" fill="#fbf9ff"/>
  <polygon points="142.3,176.1 187.6,126.5 87.2,184.2" fill="#fcfaff"/>
  <polygon points="187.6,126.5 126.1,121.4 87.2,184.2" fill="#c7c7d4"/>
  <polygon points="187.6,126.5 237.9,108.0 198.2,69.7" fill="#fcfbff"/>
  <polygon points="187.6,126.5 198.2,69.7 126.1,121.4" fill="#faf9ff"/>
  <polygon points="237.9,108.0 292.1,113.9 198.2,69.7" fill="#ebebf2"/>
  <polygon points="292.1,113.9 282.7,61.4 198.2,69.7" fill="#e8e6f3"/>
  <polygon points="292.1,113.9 350.6,154.5 364.0,99.8" fill="#c6c5d1"/>
  <polygon points="292.1,113.9 364.0,99.8 282.7,61.4" fill="#d0ceda"/>
  <polygon points="350.6,154.5 377.7,199.8 364.0,99.8" fill="#fafbff"/>
  <polygon points="377.7,199.8 413.3,163.7 364.0,99.8" fill="#fafbff"/>
  <polygon points="377.7,199.8 386.2,272.5 434.7,229.9" fill="#d7dee8"/>
  <polygon points="377.7,199.8 434.7,229.9 413.3,163.7" fill="#f2f9ff"/>
  <polygon points="434.7,229.9 420.2,334.8 450.1,380.8" fill="#c9ccd8"/>
  <polygon points="434.7,229.9 450.1,380.8 482.6,283.8" fill="#dad9e6"/>
  <polygon points="420.2,334.8 374.5,403.8 450.1,380.8" fill="#b3b5c4"/>
  <polygon points="374.5,403.8 381.4,455.1 450.1,380.8" fill="#c6c3d1"/>
  <polygon points="374.5,403.8 301.1,442.4 278.9,495.5" fill="#a7a6b1"/>
  <polygon points="374.5,403.8 278.9,495.5 381.4,455.1" fill="#9d9ca9"/>
  <polygon points="301.1,442.4 229.8,450.0 278.9,495.5" fill="#a1a0ad"/>
  <polygon points="229.8,450.0 181.1,481.5 278.9,495.5" fill="#a1a1ae"/>
  <polygon points="229.8,450.0 147.8,415.4 94.7,426.0" fill="#bbbac6"/>
  <polygon points="229.8,450.0 94.7,426.0 181.1,481.5" fill="#a9a9b6"/>
  <polygon points="147.8,415.4 97.6,348.5 94.7,426.0" fill="#a0a1ac"/>
  <polygon points="97.6,348.5 39.4,334.9 94.7,426.0" fill="#a5a5b1"/>
  <polygon points="97.6,348.5 73.8,261.8 27.9,232.4" fill="#d7d6e1"/>
  <polygon points="97.6,348.5 27.9,232.4 39.4,334.9" fill="#c0bfcd"/>
  <polygon points="73.8,261.8 87.2,184.2 27.9,232.4" fill="#c4c3cf"/>
  <polygon points="87.2,184.2 62.4,127.9 27.9,232.4" fill="#eeedf8"/>
  <polygon points="87.2,184.2 126.1,121.4 134.2,52.2" fill="#fbfbff"/>
  <polygon points="87.2,184.2 134.2,52.2 62.4,127.9" fill="#fcfbff"/>
  <polygon points="126.1,121.4 198.2,69.7 134.2,52.2" fill="#fcfaff"/>
  <polygon points="198.2,69.7 225.9,17.0 134.2,52.2" fill="#fcfbff"/>
  <polygon points="198.2,69.7 282.7,61.4 330.2,28.9" fill="#fcfaff"/>
  <polygon points="198.2,69.7 330.2,28.9 225.9,17.0" fill="#fcfaff"/>
  <polygon points="282.7,61.4 364.0,99.8 330.2,28.9" fill="#dcdae8"/>
  <polygon points="364.0,99.8 414.0,83.3 330.2,28.9" fill="#cdcbda"/>
  <polygon points="364.0,99.8 413.3,163.7 470.6,172.7" fill="#fcfaff"/>
  <polygon points="364.0,99.8 470.6,172.7 414.0,83.3" fill="#e9e7f4"/>
  <polygon points="413.3,163.7 434.7,229.9 470.6,172.7" fill="#fbfaff"/>
  <polygon points="434.7,229.9 482.6,283.8 470.6,172.7" fill="#e4e2ef"/>
</g>
</svg>
