<svg xmlns="http://www.w3.org/2000/svg" width="512" height="512" viewBox="0 0 512 512" fill="none">
<g shape-rendering="geometricPrecision">
  <polygon points="338.4,254.2 329.0,302.6 368.1,339.0" fill="#322554"/>
  <polygon points="338.4,254.2 368.1,339.0 386.2,272.5" fill="#2c1e44"/>
  <polygon points="329.0,302.6 306.9,338.3 368.1,339.0" fill="#40365a"/>
  <polygon points="306.9,338.3 326.2,386.0 368.1,339.0" fill="#68627b"/>
  <polygon points="306.9,338.3 274.9,358.8 266.7,403.0" fill="#3d4260"/>
  <polygon points="306.9,338.3 266.7,403.0 326.2,386.0" fill="#7c7c8a"/>
  <polygon points="274.9,358.8 237.3,358.2 266.7,403.0" fill="#394464"/>
  <polygon points="237.3,358.2 218.9,399.2 266.7,403.0" fill="#2f4464"/>
  <polygon points="237.3,358.2 205.8,339.9 167.9,362.0" fill="#2d2a51"/>
  <polygon points="237.3,358.2 167.9,362.0 218.9,399.2" fill="#21274e"/>
  <polygon points="205.8,339.9 183.4,301.5 167.9,362.0" fill="#333359"/>
  <polygon points="183.4,301.5 134.0,314.1 167.9,362.0" fill="#191d40"/>
  <polygon points="183.4,301.5 175.2,256.5 126.8,242.8" fill="#372b55"/>
  <polygon points="183.4,301.5 126.8,242.8 134.0,314.1" fill="#3b385d"/>
  <polygon points="175.2,256.5 183.3,210.2 126.8,242.8" fill="#2d224e"/>
  <polygon points="183.3,210.2 142.3,176.1 126.8,242.8" fill="#160a32"/>
  <polygon points="183.3,210.2 206.9,172.6 187.6,126.5" fill="#252443"/>
  <polygon points="183.3,210.2 187.6,126.5 142.3,176.1" fill="#1f1b3d"/>
  <polygon points="206.9,172.6 239.3,153.4 187.6,126.5" fill="#171037"/>
  <polygon points="239.3,153.4 237.9,108.0 187.6,126.5" fill="#050324"/>
  <polygon points="239.3,153.4 272.8,153.5 292.1,113.9" fill="#111741"/>
  <polygon points="239.3,153.4 292.1,113.9 237.9,108.0" fill="#0b0e37"/>
  <polygon points="272.8,153.5 306.2,172.8 292.1,113.9" fill="#0d062c"/>
  <polygon points="306.2,172.8 350.6,154.5 292.1,113.9" fill="#2c1e48"/>
  <polygon points="306.2,172.8 328.7,211.6 377.7,199.8" fill="#281e46"/>
  <polygon points="306.2,172.8 377.7,199.8 350.6,154.5" fill="#12062b"/>
  <polygon points="328.7,211.6 338.4,254.2 377.7,199.8" fill="#0e042a"/>
  <polygon points="338.4,254.2 386.2,272.5 377.7,199.8" fill="#080020"/>
  <polygon points="386.2,272.5 368.1,339.0 434.7,229.9" fill="#03021f"/>
  <polygon points="368.1,339.0 420.2,334.8 434.7,229.9" fill="#07052c"/>
  <polygon points="368.1,339.0 326.2,386.0 374.5,403.8" fill="#191e39"/>
  <polygon points="368.1,339.0 374.5,403.8 420.2,334.8" fill="#171b38"/>
  <polygon points="326.2,386.0 266.7,403.0 374.5,403.8" fill="#1a1933"/>
  <polygon points="266.7,403.0 301.1,442.4 374.5,403.8" fill="#332f49"/>
  <polygon points="266.7,403.0 218.9,399.2 229.8,450.0" fill="#141332"/>
  <polygon points="266.7,403.0 229.8,450.0 301.1,442.4" fill="#040018"/>
  <polygon points="218.9,399.2 167.9,362.0 229.8,450.0" fill="#090726"/>
  <polygon points="167.9,362.0 147.8,415.4 229.8,450.0" fill="#12102f"/>
  <polygon points="167.9,362.0 134.0,314.1 97.6,348.5" fill="#090625"/>
  <polygon points="167.9,362.0 97.6,348.5 147.8,415.4" fill="#0e0f30"/>
  <polygon points="134.0,314.1 126.8,242.8 97.6,348.5" fill="#020012"/>
  <polygon points="126.8,242.8 73.8,261.8 97.6,348.5" fill="#110a29"/>
  <polygon points="126.8,242.8 142.3,176.1 87.2,184.2" fill="#605a77"/>
  <polygon points="126.8,242.8 87.2,184.2 73.8,261.8" fill="#4c4261"/>
  <polygon points="142.3,176.1 187.6,126.5 87.2,184.2" fill="#5c5571"/>
  <polygon points="187.6,126.5 126.1,121.4 87.2,184.2" fill="#251c44"/>
  <polygon points="187.6,126.5 237.9,108.0 198.2,69.7" fill="#868091"/>
  <polygon points="187.6,126.5 198.2,69.7 126.1,121.4" fill="#4a4462"/>
  <polygon points="237.9,108.0 292.1,113.9 198.2,69.7" fill="#3c394f"/>
  <polygon points="292.1,113.9 282.7,61.4 198.2,69.7" fill="#3e325a"/>
  <polygon points="292.1,113.9 350.6,154.5 364.0,99.8" fill="#1f1939"/>
  <polygon points="292.1,113.9 364.0,99.8 282.7,61.4" fill="#282041"/>
  <polygon points="350.6,154.5 377.7,199.8 364.0,99.8" fill="#484b63"/>
  <polygon points="377.7,199.8 413.3,163.7 364.0,99.8" fill="#4b4b60"/>
  <polygon points="377.7,199.8 386.2,272.5 434.7,229.9" fill="#1b2c4b"/>
  <polygon points="377.7,199.8 434.7,229.9 413.3,163.7" fill="#30435d"/>
  <polygon points="434.7,229.9 420.2,334.8 450.1,380.8" fill="#181d40"/>
  <polygon points="434.7,229.9 450.1,380.8 482.6,283.8" fill="#292146"/>
  <polygon points="420.2,334.8 374.5,403.8 450.1,380.8" fill="#0e0530"/>
  <polygon points="374.5,403.8 381.4,455.1 450.1,380.8" fill="#201139"/>
  <polygon points="374.5,403.8 301.1,442.4 278.9,495.5" fill="#09011c"/>
  <polygon points="374.5,403.8 278.9,495.5 381.4,455.1" fill="#040016"/>
  <polygon points="301.1,442.4 229.8,450.0 278.9,495.5" fill="#07001d"/>
  <polygon points="229.8,450.0 181.1,481.5 278.9,495.5" fill="#07001f"/>
  <polygon points="229.8,450.0 147.8,415.4 94.7,426.0" fill="#1a1133"/>
  <polygon points="229.8,450.0 94.7,426.0 181.1,481.5" fill="#0c0427"/>
  <polygon points="147.8,415.4 97.6,348.5 94.7,426.0" fill="#06021c"/>
  <polygon points="97.6,348.5 39.4,334.9 94.7,426.0" fill="#090322"/>
  <polygon points="97.6,348.5 73.8,261.8 27.9,232.4" fill="#312b49"/>
  <polygon points="97.6,348.5 27.9,232.4 39.4,334.9" fill="#1e163e"/>
  <polygon points="73.8,261.8 87.2,184.2 27.9,232.4" fill="#241b3d"/>
  <polygon points="87.2,184.2 62.4,127.9 27.9,232.4" fill="#423a5a"/>
  <polygon points="87.2,184.2 126.1,121.4 134.2,52.2" fill="#5b5674"/>
  <polygon points="87.2,184.2 134.2,52.2 62.4,127.9" fill="#777188"/>
  <polygon points="126.1,121.4 198.2,69.7 134.2,52.2" fill="#6f6688"/>
  <polygon points="198.2,69.7 225.9,17.0 134.2,52.2" fill="#8c8796"/>
  <polygon points="198.2,69.7 282.7,61.4 330.2,28.9" fill="#544b6d"/>
  <polygon points="198.2,69.7 330.2,28.9 225.9,17.0" fill="#6a637f"/>
  <polygon points="282.7,61.4 364.0,99.8 330.2,28.9" fill="#31254f"/>
  <polygon points="364.0,99.8 414.0,83.3 330.2,28.9" fill="#251844"/>
  <polygon points="364.0,99.8 413.3,163.7 470.6,172.7" fill="#5b5671"/>
  <polygon points="364.0,99.8 470.6,172.7 414.0,83.3" fill="#392e53"/>
  <polygon points="413.3,163.7 434.7,229.9 470.6,172.7" fill="#464163"/>
  <polygon points="434.7,229.9 482.6,283.8 470.6,172.7" fill="#352b4f"/>
</g>
</svg>
